STARTFONT 2.1
FONT -Adobe-ITC Avant Garde Gothic-Demi-R-Normal--12-120-75-75-P-70-ISO8859-1
SIZE 12 75 75
FONTBOUNDINGBOX 16 15 -1 -3
COMMENT +
COMMENT Copyright (c) 1984, 1987, 1991 Adobe Systems Incorporated.  
COMMENT All Rights Reserved.
COMMENT 
COMMENT Copyright (c) 1988, 1991 Digital Equipment Corporation.  
COMMENT All Rights Reserved.  Unpublished rights reserved under the 
COMMENT copyright laws of the United States.
COMMENT 
COMMENT Adobe is a registered trademark of Adobe Systems Incorporated.
COMMENT 
COMMENT ITC Avant Garde Gothic is a registered trademark of International 
COMMENT Typeface Corporation.
COMMENT 
COMMENT Permission to use these trademarks is hereby granted only in 
COMMENT association with the images described in this file.
COMMENT -
STARTPROPERTIES 28
FOUNDRY "Adobe"
FAMILY_NAME "ITC Avant Garde Gothic"
WEIGHT_NAME "Demi"
SLANT "R"
SETWIDTH_NAME "Normal"
ADD_STYLE_NAME ""
PIXEL_SIZE 12
POINT_SIZE 120
RESOLUTION_X 75
RESOLUTION_Y 75
SPACING "P"
AVERAGE_WIDTH 70
CHARSET_REGISTRY "ISO8859"
CHARSET_ENCODING "1"
CAP_HEIGHT 9
X_HEIGHT 7
FONT_ASCENT 11
FONT_DESCENT 3
FACE_NAME "ITC Avant Garde Gothic Demi"
COPYRIGHT "Copyright (c) 1984, 1987 Adobe Systems Incorporated. All Rights Reserved. Copyright (c) 1988, 1991 Digital Equipment Corporation. All Rights Reserved."
NOTICE "ITC Avant Garde Gothic is a registered trademark of International Typeface Corporation."
_DEC_DEVICE_FONTNAMES "PS=AvantGarde-Demi"
_DEC_PRODUCTINFO "DECwindows Fonts V2.2-1, 27-Nov-1991"
DEFAULT_CHAR 32
RELATIVE_SETWIDTH 50
RELATIVE_WEIGHT 60
CHARSET_COLLECTIONS "ASCII ISO8859-1 ADOBE-STANDARD"
FULL_NAME "ITC Avant Garde Gothic Demi"
ENDPROPERTIES
CHARS 229
STARTCHAR A
ENCODING 65
SWIDTH 740 0
DWIDTH 9 0
BBX 8 9 0 0
BITMAP
18
18
3C
3C
66
7E
FF
C3
C3
ENDCHAR
STARTCHAR AE
ENCODING 198
SWIDTH 900 0
DWIDTH 12 0
BBX 11 9 0 0
BITMAP
07E0
0FE0
0F00
1BE0
3BE0
3F00
7F00
E3E0
C3E0
ENDCHAR
STARTCHAR Aacute
ENCODING 193
SWIDTH 740 0
DWIDTH 9 0
BBX 8 12 0 0
BITMAP
0C
18
00
18
18
3C
3C
66
7E
FF
C3
C3
ENDCHAR
STARTCHAR Acircumflex
ENCODING 194
SWIDTH 740 0
DWIDTH 9 0
BBX 8 12 0 0
BITMAP
18
34
00
18
18
3C
3C
66
7E
FF
C3
C3
ENDCHAR
STARTCHAR Adieresis
ENCODING 196
SWIDTH 740 0
DWIDTH 9 0
BBX 8 12 0 0
BITMAP
36
36
00
18
18
3C
3C
66
7E
FF
C3
C3
ENDCHAR
STARTCHAR Agrave
ENCODING 192
SWIDTH 740 0
DWIDTH 9 0
BBX 8 12 0 0
BITMAP
30
18
00
18
18
3C
3C
66
7E
FF
C3
C3
ENDCHAR
STARTCHAR Aring
ENCODING 197
SWIDTH 740 0
DWIDTH 9 0
BBX 8 12 0 0
BITMAP
18
34
18
18
18
3C
3C
66
7E
FF
C3
C3
ENDCHAR
STARTCHAR Atilde
ENCODING 195
SWIDTH 740 0
DWIDTH 9 0
BBX 8 12 0 0
BITMAP
1A
2C
00
18
18
3C
3C
66
7E
FF
C3
C3
ENDCHAR
STARTCHAR B
ENCODING 66
SWIDTH 580 0
DWIDTH 7 0
BBX 6 9 0 0
BITMAP
F8
FC
CC
FC
F8
CC
CC
FC
F8
ENDCHAR
STARTCHAR C
ENCODING 67
SWIDTH 780 0
DWIDTH 10 0
BBX 9 9 0 0
BITMAP
3E00
7F00
E380
C000
C000
C000
E380
7F00
3E00
ENDCHAR
STARTCHAR Ccedilla
ENCODING 199
SWIDTH 780 0
DWIDTH 10 0
BBX 9 12 0 -3
BITMAP
3E00
7F00
E380
C000
C000
C000
E380
7F00
3E00
0C00
2600
1C00
ENDCHAR
STARTCHAR D
ENCODING 68
SWIDTH 700 0
DWIDTH 8 0
BBX 7 9 0 0
BITMAP
F8
FC
CE
C6
C6
C6
CE
FC
F8
ENDCHAR
STARTCHAR E
ENCODING 69
SWIDTH 520 0
DWIDTH 6 0
BBX 5 9 0 0
BITMAP
F8
F8
C0
F8
F8
C0
C0
F8
F8
ENDCHAR
STARTCHAR Eacute
ENCODING 201
SWIDTH 520 0
DWIDTH 6 0
BBX 5 12 0 0
BITMAP
30
60
00
F8
F8
C0
F8
F8
C0
C0
F8
F8
ENDCHAR
STARTCHAR Ecircumflex
ENCODING 202
SWIDTH 520 0
DWIDTH 6 0
BBX 5 12 0 0
BITMAP
30
68
00
F8
F8
C0
F8
F8
C0
C0
F8
F8
ENDCHAR
STARTCHAR Edieresis
ENCODING 203
SWIDTH 520 0
DWIDTH 6 0
BBX 5 12 0 0
BITMAP
D8
D8
00
F8
F8
C0
F8
F8
C0
C0
F8
F8
ENDCHAR
STARTCHAR Egrave
ENCODING 200
SWIDTH 520 0
DWIDTH 6 0
BBX 5 12 0 0
BITMAP
60
30
00
F8
F8
C0
F8
F8
C0
C0
F8
F8
ENDCHAR
STARTCHAR Eth
ENCODING 208
SWIDTH 742 0
DWIDTH 8 0
BBX 8 9 -1 0
BITMAP
7C
7E
67
63
F3
63
67
7E
7C
ENDCHAR
STARTCHAR F
ENCODING 70
SWIDTH 480 0
DWIDTH 6 0
BBX 5 9 0 0
BITMAP
F8
F8
C0
F8
F8
C0
C0
C0
C0
ENDCHAR
STARTCHAR G
ENCODING 71
SWIDTH 840 0
DWIDTH 10 0
BBX 9 9 0 0
BITMAP
3E00
7F00
E380
C000
CF80
CF80
E380
7F00
3E00
ENDCHAR
STARTCHAR H
ENCODING 72
SWIDTH 680 0
DWIDTH 8 0
BBX 7 9 0 0
BITMAP
C6
C6
C6
FE
FE
C6
C6
C6
C6
ENDCHAR
STARTCHAR I
ENCODING 73
SWIDTH 280 0
DWIDTH 3 0
BBX 2 9 0 0
BITMAP
C0
C0
C0
C0
C0
C0
C0
C0
C0
ENDCHAR
STARTCHAR Iacute
ENCODING 205
SWIDTH 280 0
DWIDTH 3 0
BBX 3 12 0 0
BITMAP
60
C0
00
C0
C0
C0
C0
C0
C0
C0
C0
C0
ENDCHAR
STARTCHAR Icircumflex
ENCODING 206
SWIDTH 280 0
DWIDTH 3 0
BBX 4 12 -1 0
BITMAP
60
D0
00
60
60
60
60
60
60
60
60
60
ENDCHAR
STARTCHAR Idieresis
ENCODING 207
SWIDTH 280 0
DWIDTH 3 0
BBX 5 12 -1 0
BITMAP
D8
D8
00
60
60
60
60
60
60
60
60
60
ENDCHAR
STARTCHAR Igrave
ENCODING 204
SWIDTH 280 0
DWIDTH 3 0
BBX 3 12 -1 0
BITMAP
C0
60
00
60
60
60
60
60
60
60
60
60
ENDCHAR
STARTCHAR J
ENCODING 74
SWIDTH 480 0
DWIDTH 7 0
BBX 6 9 0 0
BITMAP
0C
0C
0C
0C
0C
0C
CC
FC
78
ENDCHAR
STARTCHAR K
ENCODING 75
SWIDTH 620 0
DWIDTH 8 0
BBX 7 9 0 0
BITMAP
C6
CE
DC
F8
F0
F8
DC
CE
C6
ENDCHAR
STARTCHAR L
ENCODING 76
SWIDTH 440 0
DWIDTH 6 0
BBX 5 9 0 0
BITMAP
C0
C0
C0
C0
C0
C0
C0
F8
F8
ENDCHAR
STARTCHAR Lslash
ENCODING -1
SWIDTH 480 0
DWIDTH 7 0
BBX 6 9 0 0
BITMAP
60
60
70
70
E0
E0
60
7C
7C
ENDCHAR
STARTCHAR M
ENCODING 77
SWIDTH 900 0
DWIDTH 11 0
BBX 10 9 0 0
BITMAP
E1C0
E1C0
F3C0
F3C0
D2C0
DEC0
DEC0
CCC0
CCC0
ENDCHAR
STARTCHAR N
ENCODING 78
SWIDTH 740 0
DWIDTH 8 0
BBX 7 9 0 0
BITMAP
C6
E6
E6
F6
DE
DE
CE
C6
C6
ENDCHAR
STARTCHAR Ntilde
ENCODING 209
SWIDTH 740 0
DWIDTH 8 0
BBX 7 12 0 0
BITMAP
34
58
00
C6
E6
E6
F6
DE
DE
CE
C6
C6
ENDCHAR
STARTCHAR O
ENCODING 79
SWIDTH 840 0
DWIDTH 10 0
BBX 9 9 0 0
BITMAP
3E00
7F00
E380
C180
C180
C180
E380
7F00
3E00
ENDCHAR
STARTCHAR OE
ENCODING -1
SWIDTH 1060 0
DWIDTH 13 0
BBX 12 9 0 0
BITMAP
3DF0
7FF0
E380
C1F0
C1F0
C180
E380
7FF0
3DF0
ENDCHAR
STARTCHAR Oacute
ENCODING 211
SWIDTH 840 0
DWIDTH 10 0
BBX 9 12 0 0
BITMAP
0C00
1800
0000
3E00
7F00
E380
C180
C180
C180
E380
7F00
3E00
ENDCHAR
STARTCHAR Ocircumflex
ENCODING 212
SWIDTH 840 0
DWIDTH 10 0
BBX 9 12 0 0
BITMAP
0C00
1A00
0000
3E00
7F00
E380
C180
C180
C180
E380
7F00
3E00
ENDCHAR
STARTCHAR Odieresis
ENCODING 214
SWIDTH 840 0
DWIDTH 10 0
BBX 9 12 0 0
BITMAP
3600
3600
0000
3E00
7F00
E380
C180
C180
C180
E380
7F00
3E00
ENDCHAR
STARTCHAR Ograve
ENCODING 210
SWIDTH 840 0
DWIDTH 10 0
BBX 9 12 0 0
BITMAP
1800
0C00
0000
3E00
7F00
E380
C180
C180
C180
E380
7F00
3E00
ENDCHAR
STARTCHAR Oslash
ENCODING 216
SWIDTH 840 0
DWIDTH 10 0
BBX 9 11 0 -1
BITMAP
0180
3F80
7F00
E780
CF80
DD80
F980
F380
7F00
FE00
C000
ENDCHAR
STARTCHAR Otilde
ENCODING 213
SWIDTH 840 0
DWIDTH 10 0
BBX 9 12 0 0
BITMAP
1A00
2C00
0000
3E00
7F00
E380
C180
C180
C180
E380
7F00
3E00
ENDCHAR
STARTCHAR P
ENCODING 80
SWIDTH 560 0
DWIDTH 7 0
BBX 6 9 0 0
BITMAP
F8
FC
CC
CC
FC
F8
C0
C0
C0
ENDCHAR
STARTCHAR Q
ENCODING 81
SWIDTH 840 0
DWIDTH 11 0
BBX 10 9 0 0
BITMAP
3E00
7F00
E380
C180
F980
FD80
E780
7FC0
3EC0
ENDCHAR
STARTCHAR R
ENCODING 82
SWIDTH 580 0
DWIDTH 7 0
BBX 6 9 0 0
BITMAP
F8
FC
CC
CC
FC
F8
D8
DC
CC
ENDCHAR
STARTCHAR S
ENCODING 83
SWIDTH 520 0
DWIDTH 7 0
BBX 6 9 0 0
BITMAP
78
FC
CC
E0
78
1C
CC
FC
78
ENDCHAR
STARTCHAR Scaron
ENCODING -1
SWIDTH 520 0
DWIDTH 7 0
BBX 6 10 0 0
BITMAP
68
30
78
FC
CC
70
38
CC
FC
78
ENDCHAR
STARTCHAR T
ENCODING 84
SWIDTH 420 0
DWIDTH 7 0
BBX 6 9 0 0
BITMAP
FC
FC
30
30
30
30
30
30
30
ENDCHAR
STARTCHAR Thorn
ENCODING 222
SWIDTH 560 0
DWIDTH 7 0
BBX 6 9 0 0
BITMAP
C0
F8
FC
CC
CC
FC
F8
C0
C0
ENDCHAR
STARTCHAR U
ENCODING 85
SWIDTH 640 0
DWIDTH 8 0
BBX 7 9 0 0
BITMAP
C6
C6
C6
C6
C6
C6
C6
FE
7C
ENDCHAR
STARTCHAR Uacute
ENCODING 218
SWIDTH 640 0
DWIDTH 8 0
BBX 7 12 0 0
BITMAP
0C
18
00
C6
C6
C6
C6
C6
C6
C6
FE
7C
ENDCHAR
STARTCHAR Ucircumflex
ENCODING 219
SWIDTH 640 0
DWIDTH 8 0
BBX 7 12 0 0
BITMAP
18
34
00
C6
C6
C6
C6
C6
C6
C6
FE
7C
ENDCHAR
STARTCHAR Udieresis
ENCODING 220
SWIDTH 640 0
DWIDTH 8 0
BBX 7 12 0 0
BITMAP
6C
6C
00
C6
C6
C6
C6
C6
C6
C6
FE
7C
ENDCHAR
STARTCHAR Ugrave
ENCODING 217
SWIDTH 640 0
DWIDTH 8 0
BBX 7 12 0 0
BITMAP
30
18
00
C6
C6
C6
C6
C6
C6
C6
FE
7C
ENDCHAR
STARTCHAR V
ENCODING 86
SWIDTH 700 0
DWIDTH 9 0
BBX 8 9 0 0
BITMAP
C3
C3
E7
66
66
3C
3C
18
18
ENDCHAR
STARTCHAR W
ENCODING 87
SWIDTH 900 0
DWIDTH 11 0
BBX 10 9 0 0
BITMAP
CCC0
CCC0
CCC0
6DC0
6D80
6D80
7F80
3300
3300
ENDCHAR
STARTCHAR X
ENCODING 88
SWIDTH 680 0
DWIDTH 8 0
BBX 7 9 0 0
BITMAP
C6
EE
6C
38
38
38
6C
EE
C6
ENDCHAR
STARTCHAR Y
ENCODING 89
SWIDTH 620 0
DWIDTH 9 0
BBX 8 9 0 0
BITMAP
E7
66
66
3C
3C
18
18
18
18
ENDCHAR
STARTCHAR Yacute
ENCODING 221
SWIDTH 620 0
DWIDTH 9 0
BBX 8 12 0 0
BITMAP
0C
18
00
E7
66
66
3C
3C
18
18
18
18
ENDCHAR
STARTCHAR Ydieresis
ENCODING -1
SWIDTH 620 0
DWIDTH 9 0
BBX 8 10 0 0
BITMAP
24
24
E7
66
66
3C
3C
18
18
18
ENDCHAR
STARTCHAR Z
ENCODING 90
SWIDTH 500 0
DWIDTH 6 0
BBX 5 9 0 0
BITMAP
F8
F8
18
30
30
60
60
F8
F8
ENDCHAR
STARTCHAR Zcaron
ENCODING -1
SWIDTH 500 0
DWIDTH 6 0
BBX 5 10 0 0
BITMAP
D0
60
F8
F8
30
30
60
60
F8
F8
ENDCHAR
STARTCHAR a
ENCODING 97
SWIDTH 660 0
DWIDTH 8 0
BBX 7 7 0 0
BITMAP
36
7E
C6
C6
C6
7E
36
ENDCHAR
STARTCHAR aacute
ENCODING 225
SWIDTH 660 0
DWIDTH 8 0
BBX 7 10 0 0
BITMAP
0C
18
00
36
7E
C6
C6
C6
7E
36
ENDCHAR
STARTCHAR acircumflex
ENCODING 226
SWIDTH 660 0
DWIDTH 8 0
BBX 7 10 0 0
BITMAP
18
34
00
36
7E
C6
C6
C6
7E
36
ENDCHAR
STARTCHAR acute
ENCODING 180
SWIDTH 420 0
DWIDTH 5 0
BBX 3 2 1 8
BITMAP
60
C0
ENDCHAR
STARTCHAR adieresis
ENCODING 228
SWIDTH 660 0
DWIDTH 8 0
BBX 7 10 0 0
BITMAP
6C
6C
00
36
7E
C6
C6
C6
7E
36
ENDCHAR
STARTCHAR ae
ENCODING 230
SWIDTH 1080 0
DWIDTH 13 0
BBX 12 7 0 0
BITMAP
36C0
7FE0
C630
C7F0
C600
7FF0
36E0
ENDCHAR
STARTCHAR agrave
ENCODING 224
SWIDTH 660 0
DWIDTH 8 0
BBX 7 10 0 0
BITMAP
30
18
00
36
7E
C6
C6
C6
7E
36
ENDCHAR
STARTCHAR ampersand
ENCODING 38
SWIDTH 680 0
DWIDTH 9 0
BBX 8 9 0 0
BITMAP
38
7C
6C
3B
7B
EE
CE
FF
7B
ENDCHAR
STARTCHAR aring
ENCODING 229
SWIDTH 660 0
DWIDTH 8 0
BBX 7 10 0 0
BITMAP
18
34
18
36
7E
C6
C6
C6
7E
36
ENDCHAR
STARTCHAR asciicircum
ENCODING 94
SWIDTH 600 0
DWIDTH 8 0
BBX 5 5 1 4
BITMAP
20
70
50
D8
88
ENDCHAR
STARTCHAR asciitilde
ENCODING 126
SWIDTH 600 0
DWIDTH 9 0
BBX 7 2 1 3
BITMAP
76
DC
ENDCHAR
STARTCHAR asterisk
ENCODING 42
SWIDTH 440 0
DWIDTH 7 0
BBX 5 5 1 4
BITMAP
20
F8
70
F8
20
ENDCHAR
STARTCHAR at
ENCODING 64
SWIDTH 740 0
DWIDTH 11 0
BBX 10 9 0 0
BITMAP
1F00
6080
4E40
9240
A440
A480
9B00
4000
3F00
ENDCHAR
STARTCHAR atilde
ENCODING 227
SWIDTH 660 0
DWIDTH 8 0
BBX 7 10 0 0
BITMAP
34
58
00
36
7E
C6
C6
C6
7E
36
ENDCHAR
STARTCHAR b
ENCODING 98
SWIDTH 660 0
DWIDTH 8 0
BBX 7 9 0 0
BITMAP
C0
C0
D8
FC
C6
C6
C6
FC
D8
ENDCHAR
STARTCHAR backslash
ENCODING 92
SWIDTH 640 0
DWIDTH 8 0
BBX 5 9 1 0
BITMAP
80
C0
40
60
20
30
10
18
08
ENDCHAR
STARTCHAR bar
ENCODING 124
SWIDTH 600 0
DWIDTH 7 0
BBX 1 9 3 0
BITMAP
80
80
80
80
80
80
80
80
80
ENDCHAR
STARTCHAR braceleft
ENCODING 123
SWIDTH 340 0
DWIDTH 5 0
BBX 4 11 0 -2
BITMAP
30
60
60
60
40
80
40
60
60
60
30
ENDCHAR
STARTCHAR braceright
ENCODING 125
SWIDTH 340 0
DWIDTH 5 0
BBX 4 11 0 -2
BITMAP
C0
60
60
60
20
10
20
60
60
60
C0
ENDCHAR
STARTCHAR bracketleft
ENCODING 91
SWIDTH 320 0
DWIDTH 5 0
BBX 4 11 0 -2
BITMAP
70
F0
C0
C0
C0
C0
C0
C0
C0
F0
70
ENDCHAR
STARTCHAR bracketright
ENCODING 93
SWIDTH 320 0
DWIDTH 5 0
BBX 4 11 0 -2
BITMAP
E0
F0
30
30
30
30
30
30
30
F0
E0
ENDCHAR
STARTCHAR breve
ENCODING -1
SWIDTH 480 0
DWIDTH 7 0
BBX 5 2 1 8
BITMAP
C8
70
ENDCHAR
STARTCHAR brokenbar
ENCODING 166
SWIDTH 600 0
DWIDTH 7 0
BBX 1 9 3 0
BITMAP
80
80
80
00
00
80
80
80
80
ENDCHAR
STARTCHAR bullet
ENCODING -1
SWIDTH 600 0
DWIDTH 5 0
BBX 4 4 0 2
BITMAP
60
F0
F0
60
ENDCHAR
STARTCHAR c
ENCODING 99
SWIDTH 640 0
DWIDTH 8 0
BBX 7 7 0 0
BITMAP
38
7C
C6
C0
C6
7C
38
ENDCHAR
STARTCHAR caron
ENCODING -1
SWIDTH 540 0
DWIDTH 7 0
BBX 4 2 1 8
BITMAP
D0
60
ENDCHAR
STARTCHAR ccedilla
ENCODING 231
SWIDTH 640 0
DWIDTH 8 0
BBX 7 10 0 -3
BITMAP
38
7C
C6
C0
C6
7C
38
18
4C
38
ENDCHAR
STARTCHAR cedilla
ENCODING 184
SWIDTH 340 0
DWIDTH 5 0
BBX 5 3 0 -3
BITMAP
30
98
70
ENDCHAR
STARTCHAR cent
ENCODING 162
SWIDTH 560 0
DWIDTH 7 0
BBX 6 9 0 0
BITMAP
30
30
78
EC
C0
EC
78
30
30
ENDCHAR
STARTCHAR circumflex
ENCODING -1
SWIDTH 540 0
DWIDTH 7 0
BBX 4 2 1 8
BITMAP
60
D0
ENDCHAR
STARTCHAR colon
ENCODING 58
SWIDTH 280 0
DWIDTH 3 0
BBX 2 7 0 0
BITMAP
C0
C0
00
00
00
C0
C0
ENDCHAR
STARTCHAR comma
ENCODING 44
SWIDTH 280 0
DWIDTH 3 0
BBX 2 4 0 -2
BITMAP
C0
C0
40
80
ENDCHAR
STARTCHAR copyright
ENCODING 169
SWIDTH 740 0
DWIDTH 11 0
BBX 9 9 1 0
BITMAP
3E00
4100
9C80
A280
A080
A280
9C80
4100
3E00
ENDCHAR
STARTCHAR currency
ENCODING 164
SWIDTH 600 0
DWIDTH 8 0
BBX 7 7 0 1
BITMAP
C6
FE
6C
44
6C
FE
C6
ENDCHAR
STARTCHAR d
ENCODING 100
SWIDTH 660 0
DWIDTH 8 0
BBX 7 9 0 0
BITMAP
06
06
36
7E
C6
C6
C6
7E
36
ENDCHAR
STARTCHAR dagger
ENCODING -1
SWIDTH 560 0
DWIDTH 7 0
BBX 6 11 0 -2
BITMAP
30
30
FC
30
30
30
30
30
30
30
30
ENDCHAR
STARTCHAR daggerdbl
ENCODING -1
SWIDTH 560 0
DWIDTH 7 0
BBX 6 11 0 -2
BITMAP
30
30
FC
30
30
FC
30
30
30
30
30
ENDCHAR
STARTCHAR degree
ENCODING 176
SWIDTH 400 0
DWIDTH 5 0
BBX 4 4 0 5
BITMAP
60
90
90
60
ENDCHAR
STARTCHAR dieresis
ENCODING 168
SWIDTH 500 0
DWIDTH 6 0
BBX 4 2 1 8
BITMAP
90
90
ENDCHAR
STARTCHAR divide
ENCODING 247
SWIDTH 600 0
DWIDTH 8 0
BBX 6 7 0 0
BITMAP
30
30
00
FC
00
30
30
ENDCHAR
STARTCHAR dollar
ENCODING 36
SWIDTH 560 0
DWIDTH 7 0
BBX 6 12 0 -2
BITMAP
30
30
78
CC
C0
70
38
0C
CC
78
30
30
ENDCHAR
STARTCHAR dotaccent
ENCODING -1
SWIDTH 280 0
DWIDTH 4 0
BBX 2 2 1 8
BITMAP
C0
C0
ENDCHAR
STARTCHAR dotlessi
ENCODING -1
SWIDTH 240 0
DWIDTH 3 0
BBX 2 7 0 0
BITMAP
C0
C0
C0
C0
C0
C0
C0
ENDCHAR
STARTCHAR e
ENCODING 101
SWIDTH 640 0
DWIDTH 8 0
BBX 7 7 0 0
BITMAP
38
7C
C6
FE
C0
7E
3C
ENDCHAR
STARTCHAR eacute
ENCODING 233
SWIDTH 640 0
DWIDTH 8 0
BBX 7 10 0 0
BITMAP
18
30
00
38
7C
C6
FE
C0
7E
3C
ENDCHAR
STARTCHAR ecircumflex
ENCODING 234
SWIDTH 640 0
DWIDTH 8 0
BBX 7 10 0 0
BITMAP
30
68
00
38
7C
C6
FE
C0
7E
3C
ENDCHAR
STARTCHAR edieresis
ENCODING 235
SWIDTH 640 0
DWIDTH 8 0
BBX 7 10 0 0
BITMAP
6C
6C
00
38
7C
C6
FE
C0
7E
3C
ENDCHAR
STARTCHAR egrave
ENCODING 232
SWIDTH 640 0
DWIDTH 8 0
BBX 7 10 0 0
BITMAP
30
18
00
38
7C
C6
FE
C0
7E
3C
ENDCHAR
STARTCHAR eight
ENCODING 56
SWIDTH 560 0
DWIDTH 7 0
BBX 6 9 0 0
BITMAP
78
FC
CC
78
FC
CC
CC
FC
78
ENDCHAR
STARTCHAR ellipsis
ENCODING -1
SWIDTH 1000 0
DWIDTH 12 0
BBX 10 2 1 0
BITMAP
CCC0
CCC0
ENDCHAR
STARTCHAR emdash
ENCODING -1
SWIDTH 1000 0
DWIDTH 12 0
BBX 12 1 0 3
BITMAP
FFF0
ENDCHAR
STARTCHAR endash
ENCODING -1
SWIDTH 500 0
DWIDTH 6 0
BBX 6 1 0 3
BITMAP
FC
ENDCHAR
STARTCHAR equal
ENCODING 61
SWIDTH 600 0
DWIDTH 7 0
BBX 6 3 0 2
BITMAP
FC
00
FC
ENDCHAR
STARTCHAR eth
ENCODING 240
SWIDTH 640 0
DWIDTH 8 0
BBX 7 10 0 0
BITMAP
D8
70
98
3C
7C
C6
C6
C6
7C
38
ENDCHAR
STARTCHAR exclam
ENCODING 33
SWIDTH 280 0
DWIDTH 4 0
BBX 2 9 1 0
BITMAP
C0
C0
C0
C0
C0
C0
00
C0
C0
ENDCHAR
STARTCHAR exclamdown
ENCODING 161
SWIDTH 280 0
DWIDTH 4 0
BBX 2 9 1 -2
BITMAP
C0
C0
00
C0
C0
C0
C0
C0
C0
ENDCHAR
STARTCHAR f
ENCODING 102
SWIDTH 280 0
DWIDTH 5 0
BBX 5 9 0 0
BITMAP
38
60
F0
60
60
60
60
60
60
ENDCHAR
STARTCHAR fi
ENCODING -1
SWIDTH 520 0
DWIDTH 6 0
BBX 6 9 -1 0
BITMAP
3C
60
FC
6C
6C
6C
6C
6C
6C
ENDCHAR
STARTCHAR five
ENCODING 53
SWIDTH 560 0
DWIDTH 7 0
BBX 6 9 0 0
BITMAP
7C
7C
C0
F8
FC
0C
CC
FC
78
ENDCHAR
STARTCHAR fl
ENCODING -1
SWIDTH 520 0
DWIDTH 6 0
BBX 6 9 -1 0
BITMAP
3C
6C
FC
6C
6C
6C
6C
6C
6C
ENDCHAR
STARTCHAR florin
ENCODING -1
SWIDTH 560 0
DWIDTH 7 0
BBX 7 12 -1 -3
BITMAP
0E
1E
18
3C
3C
18
18
30
30
30
F0
E0
ENDCHAR
STARTCHAR four
ENCODING 52
SWIDTH 560 0
DWIDTH 7 0
BBX 6 9 0 0
BITMAP
18
38
38
78
58
D8
FC
FC
18
ENDCHAR
STARTCHAR fraction
ENCODING -1
SWIDTH 160 0
DWIDTH 4 0
BBX 5 9 -1 0
BITMAP
08
10
10
20
20
40
40
80
80
ENDCHAR
STARTCHAR g
ENCODING 103
SWIDTH 660 0
DWIDTH 7 0
BBX 6 10 0 -3
BITMAP
34
7C
CC
CC
CC
7C
3C
8C
F8
70
ENDCHAR
STARTCHAR germandbls
ENCODING 223
SWIDTH 600 0
DWIDTH 8 0
BBX 7 9 0 0
BITMAP
38
7C
CC
D8
DC
C6
C6
FE
DC
ENDCHAR
STARTCHAR grave
ENCODING -1
SWIDTH 420 0
DWIDTH 5 0
BBX 3 2 1 8
BITMAP
C0
60
ENDCHAR
STARTCHAR greater
ENCODING 62
SWIDTH 600 0
DWIDTH 8 0
BBX 7 7 0 0
BITMAP
C0
70
1C
06
1C
70
C0
ENDCHAR
STARTCHAR guillemotleft
ENCODING 171
SWIDTH 460 0
DWIDTH 6 0
BBX 5 5 0 1
BITMAP
48
D8
90
D8
48
ENDCHAR
STARTCHAR guillemotright
ENCODING 187
SWIDTH 460 0
DWIDTH 6 0
BBX 5 5 0 1
BITMAP
90
D8
48
D8
90
ENDCHAR
STARTCHAR guilsinglleft
ENCODING -1
SWIDTH 240 0
DWIDTH 3 0
BBX 2 5 0 1
BITMAP
40
C0
80
C0
40
ENDCHAR
STARTCHAR guilsinglright
ENCODING -1
SWIDTH 240 0
DWIDTH 3 0
BBX 2 5 0 1
BITMAP
80
C0
40
C0
80
ENDCHAR
STARTCHAR h
ENCODING 104
SWIDTH 600 0
DWIDTH 7 0
BBX 6 9 0 0
BITMAP
C0
C0
D8
FC
CC
CC
CC
CC
CC
ENDCHAR
STARTCHAR hungarumlaut
ENCODING -1
SWIDTH 700 0
DWIDTH 8 0
BBX 5 2 1 8
BITMAP
48
90
ENDCHAR
STARTCHAR hyphen
ENCODING 173
SWIDTH 420 0
DWIDTH 5 0
BBX 4 2 0 3
BITMAP
F0
F0
ENDCHAR
STARTCHAR i
ENCODING 105
SWIDTH 240 0
DWIDTH 3 0
BBX 2 9 0 0
BITMAP
C0
00
C0
C0
C0
C0
C0
C0
C0
ENDCHAR
STARTCHAR iacute
ENCODING 237
SWIDTH 240 0
DWIDTH 3 0
BBX 3 10 0 0
BITMAP
60
C0
00
C0
C0
C0
C0
C0
C0
C0
ENDCHAR
STARTCHAR icircumflex
ENCODING 238
SWIDTH 240 0
DWIDTH 3 0
BBX 4 10 -1 0
BITMAP
60
D0
00
60
60
60
60
60
60
60
ENDCHAR
STARTCHAR idieresis
ENCODING 239
SWIDTH 240 0
DWIDTH 3 0
BBX 5 10 -1 0
BITMAP
D8
D8
00
60
60
60
60
60
60
60
ENDCHAR
STARTCHAR igrave
ENCODING 236
SWIDTH 240 0
DWIDTH 3 0
BBX 3 10 -1 0
BITMAP
C0
60
00
60
60
60
60
60
60
60
ENDCHAR
STARTCHAR j
ENCODING 106
SWIDTH 260 0
DWIDTH 3 0
BBX 3 12 -1 -3
BITMAP
60
00
60
60
60
60
60
60
60
60
E0
C0
ENDCHAR
STARTCHAR k
ENCODING 107
SWIDTH 580 0
DWIDTH 7 0
BBX 6 9 0 0
BITMAP
C0
C0
CC
D8
F0
F0
D8
DC
CC
ENDCHAR
STARTCHAR l
ENCODING 108
SWIDTH 240 0
DWIDTH 3 0
BBX 2 9 0 0
BITMAP
C0
C0
C0
C0
C0
C0
C0
C0
C0
ENDCHAR
STARTCHAR less
ENCODING 60
SWIDTH 600 0
DWIDTH 8 0
BBX 7 7 0 0
BITMAP
06
1C
70
C0
70
1C
06
ENDCHAR
STARTCHAR logicalnot
ENCODING 172
SWIDTH 600 0
DWIDTH 7 0
BBX 6 4 0 1
BITMAP
FC
04
04
04
ENDCHAR
STARTCHAR lslash
ENCODING -1
SWIDTH 320 0
DWIDTH 4 0
BBX 4 9 0 0
BITMAP
60
60
60
70
E0
60
60
60
60
ENDCHAR
STARTCHAR m
ENCODING 109
SWIDTH 940 0
DWIDTH 11 0
BBX 10 7 0 0
BITMAP
DB80
FFC0
CCC0
CCC0
CCC0
CCC0
CCC0
ENDCHAR
STARTCHAR macron
ENCODING 175
SWIDTH 420 0
DWIDTH 6 0
BBX 4 1 1 8
BITMAP
F0
ENDCHAR
STARTCHAR minus
ENCODING 45
SWIDTH 600 0
DWIDTH 7 0
BBX 6 1 0 3
BITMAP
FC
ENDCHAR
STARTCHAR mu
ENCODING 181
SWIDTH 576 0
DWIDTH 7 0
BBX 6 10 0 -3
BITMAP
CC
CC
CC
CC
CC
FC
EC
C0
C0
C0
ENDCHAR
STARTCHAR multiply
ENCODING 215
SWIDTH 600 0
DWIDTH 8 0
BBX 8 7 0 0
BITMAP
C3
66
3C
18
3C
66
C3
ENDCHAR
STARTCHAR n
ENCODING 110
SWIDTH 600 0
DWIDTH 7 0
BBX 6 7 0 0
BITMAP
D8
FC
CC
CC
CC
CC
CC
ENDCHAR
STARTCHAR nine
ENCODING 57
SWIDTH 560 0
DWIDTH 7 0
BBX 6 9 0 0
BITMAP
78
FC
CC
CC
FC
7C
18
38
70
ENDCHAR
STARTCHAR ntilde
ENCODING 241
SWIDTH 600 0
DWIDTH 7 0
BBX 6 10 0 0
BITMAP
68
B0
00
D8
FC
CC
CC
CC
CC
CC
ENDCHAR
STARTCHAR numbersign
ENCODING 35
SWIDTH 600 0
DWIDTH 9 0
BBX 7 9 1 0
BITMAP
14
14
7E
28
28
FC
50
50
50
ENDCHAR
STARTCHAR o
ENCODING 111
SWIDTH 640 0
DWIDTH 8 0
BBX 7 7 0 0
BITMAP
38
7C
C6
C6
C6
7C
38
ENDCHAR
STARTCHAR oacute
ENCODING 243
SWIDTH 640 0
DWIDTH 8 0
BBX 7 10 0 0
BITMAP
18
30
00
38
7C
C6
C6
C6
7C
38
ENDCHAR
STARTCHAR ocircumflex
ENCODING 244
SWIDTH 640 0
DWIDTH 8 0
BBX 7 10 0 0
BITMAP
30
68
00
38
7C
C6
C6
C6
7C
38
ENDCHAR
STARTCHAR odieresis
ENCODING 246
SWIDTH 640 0
DWIDTH 8 0
BBX 7 10 0 0
BITMAP
6C
6C
00
38
7C
C6
C6
C6
7C
38
ENDCHAR
STARTCHAR oe
ENCODING -1
SWIDTH 1080 0
DWIDTH 13 0
BBX 12 7 0 0
BITMAP
3DC0
7FE0
C630
C7F0
C600
7FF0
3DE0
ENDCHAR
STARTCHAR ogonek
ENCODING -1
SWIDTH 340 0
DWIDTH 5 0
BBX 4 3 1 -3
BITMAP
C0
D0
60
ENDCHAR
STARTCHAR ograve
ENCODING 242
SWIDTH 640 0
DWIDTH 8 0
BBX 7 10 0 0
BITMAP
30
18
00
38
7C
C6
C6
C6
7C
38
ENDCHAR
STARTCHAR one
ENCODING 49
SWIDTH 560 0
DWIDTH 7 0
BBX 4 9 1 0
BITMAP
F0
F0
30
30
30
30
30
30
30
ENDCHAR
STARTCHAR onehalf
ENCODING 189
SWIDTH 840 0
DWIDTH 10 0
BBX 9 9 0 0
BITMAP
E200
6600
6400
6C00
6B00
1D80
1300
3600
2780
ENDCHAR
STARTCHAR onequarter
ENCODING 188
SWIDTH 840 0
DWIDTH 10 0
BBX 9 9 0 0
BITMAP
E200
6600
6400
6C00
6900
1B00
1500
3F80
2300
ENDCHAR
STARTCHAR onesuperior
ENCODING 185
SWIDTH 336 0
DWIDTH 4 0
BBX 3 5 0 4
BITMAP
E0
60
60
60
60
ENDCHAR
STARTCHAR ordfeminine
ENCODING 170
SWIDTH 360 0
DWIDTH 6 0
BBX 4 5 1 4
BITMAP
70
A0
70
00
F0
ENDCHAR
STARTCHAR ordmasculine
ENCODING 186
SWIDTH 360 0
DWIDTH 6 0
BBX 4 5 1 4
BITMAP
60
90
60
00
F0
ENDCHAR
STARTCHAR oslash
ENCODING 248
SWIDTH 660 0
DWIDTH 8 0
BBX 7 9 0 -1
BITMAP
02
3E
7C
CE
D6
E6
7C
F8
80
ENDCHAR
STARTCHAR otilde
ENCODING 245
SWIDTH 640 0
DWIDTH 8 0
BBX 7 10 0 0
BITMAP
34
58
00
38
7C
C6
C6
C6
7C
38
ENDCHAR
STARTCHAR p
ENCODING 112
SWIDTH 660 0
DWIDTH 8 0
BBX 7 10 0 -3
BITMAP
DC
FE
C6
C6
C6
FE
DC
C0
C0
C0
ENDCHAR
STARTCHAR paragraph
ENCODING 182
SWIDTH 600 0
DWIDTH 7 0
BBX 6 11 0 -2
BITMAP
7C
F4
F4
F4
74
14
14
14
14
14
14
ENDCHAR
STARTCHAR parenleft
ENCODING 40
SWIDTH 380 0
DWIDTH 5 0
BBX 4 11 0 -2
BITMAP
30
70
60
C0
C0
C0
C0
C0
60
70
30
ENDCHAR
STARTCHAR parenright
ENCODING 41
SWIDTH 380 0
DWIDTH 5 0
BBX 4 11 0 -2
BITMAP
C0
E0
60
30
30
30
30
30
60
E0
C0
ENDCHAR
STARTCHAR percent
ENCODING 37
SWIDTH 860 0
DWIDTH 11 0
BBX 10 9 0 0
BITMAP
6200
F200
9600
F400
6D80
0BC0
1A40
13C0
1180
ENDCHAR
STARTCHAR period
ENCODING 46
SWIDTH 280 0
DWIDTH 3 0
BBX 2 2 0 0
BITMAP
C0
C0
ENDCHAR
STARTCHAR periodcentered
ENCODING 183
SWIDTH 280 0
DWIDTH 4 0
BBX 2 2 1 3
BITMAP
C0
C0
ENDCHAR
STARTCHAR perthousand
ENCODING -1
SWIDTH 1280 0
DWIDTH 16 0
BBX 15 9 0 0
BITMAP
6200
F200
9600
F400
6D8C
0BDE
1A52
13DE
118C
ENDCHAR
STARTCHAR plus
ENCODING 43
SWIDTH 600 0
DWIDTH 8 0
BBX 7 7 0 0
BITMAP
10
10
10
FE
10
10
10
ENDCHAR
STARTCHAR plusminus
ENCODING 177
SWIDTH 600 0
DWIDTH 8 0
BBX 7 7 0 0
BITMAP
10
10
FE
10
10
00
FE
ENDCHAR
STARTCHAR q
ENCODING 113
SWIDTH 660 0
DWIDTH 8 0
BBX 7 10 0 -3
BITMAP
76
FE
C6
C6
C6
FE
76
06
06
06
ENDCHAR
STARTCHAR question
ENCODING 63
SWIDTH 560 0
DWIDTH 7 0
BBX 6 9 0 0
BITMAP
78
FC
CC
0C
18
30
00
30
30
ENDCHAR
STARTCHAR questiondown
ENCODING 191
SWIDTH 560 0
DWIDTH 7 0
BBX 6 9 0 -2
BITMAP
30
30
00
30
60
C0
CC
FC
78
ENDCHAR
STARTCHAR quotedbl
ENCODING 34
SWIDTH 360 0
DWIDTH 5 0
BBX 3 3 1 6
BITMAP
A0
A0
A0
ENDCHAR
STARTCHAR quotedblbase
ENCODING -1
SWIDTH 480 0
DWIDTH 6 0
BBX 5 4 0 -2
BITMAP
D8
D8
48
90
ENDCHAR
STARTCHAR quotedblleft
ENCODING -1
SWIDTH 480 0
DWIDTH 6 0
BBX 5 4 0 5
BITMAP
48
90
D8
D8
ENDCHAR
STARTCHAR quotedblright
ENCODING -1
SWIDTH 480 0
DWIDTH 6 0
BBX 5 4 0 5
BITMAP
D8
D8
48
90
ENDCHAR
STARTCHAR quoteleft
ENCODING 96
SWIDTH 280 0
DWIDTH 4 0
BBX 2 4 1 5
BITMAP
40
80
C0
C0
ENDCHAR
STARTCHAR quoteright
ENCODING 39
SWIDTH 280 0
DWIDTH 3 0
BBX 2 4 0 5
BITMAP
C0
C0
40
80
ENDCHAR
STARTCHAR quotesinglbase
ENCODING -1
SWIDTH 280 0
DWIDTH 3 0
BBX 2 4 0 -2
BITMAP
C0
C0
40
80
ENDCHAR
STARTCHAR quotesingle
ENCODING -1
SWIDTH 220 0
DWIDTH 3 0
BBX 1 3 1 6
BITMAP
80
80
80
ENDCHAR
STARTCHAR r
ENCODING 114
SWIDTH 320 0
DWIDTH 4 0
BBX 4 7 0 0
BITMAP
D0
F0
C0
C0
C0
C0
C0
ENDCHAR
STARTCHAR registered
ENCODING 174
SWIDTH 740 0
DWIDTH 11 0
BBX 9 9 1 0
BITMAP
3E00
4100
9C80
9480
9880
9480
9480
4100
3E00
ENDCHAR
STARTCHAR ring
ENCODING -1
SWIDTH 360 0
DWIDTH 5 0
BBX 4 3 0 7
BITMAP
60
D0
60
ENDCHAR
STARTCHAR s
ENCODING 115
SWIDTH 440 0
DWIDTH 6 0
BBX 5 7 0 0
BITMAP
78
D8
E0
70
38
D8
F0
ENDCHAR
STARTCHAR scaron
ENCODING -1
SWIDTH 440 0
DWIDTH 6 0
BBX 5 10 0 0
BITMAP
D0
60
00
78
D8
E0
70
38
D8
F0
ENDCHAR
STARTCHAR section
ENCODING 167
SWIDTH 560 0
DWIDTH 7 0
BBX 6 11 0 -2
BITMAP
78
FC
C4
70
F8
CC
7C
38
8C
FC
78
ENDCHAR
STARTCHAR semicolon
ENCODING 59
SWIDTH 280 0
DWIDTH 3 0
BBX 2 9 0 -2
BITMAP
C0
C0
00
00
00
C0
C0
40
80
ENDCHAR
STARTCHAR seven
ENCODING 55
SWIDTH 560 0
DWIDTH 7 0
BBX 5 9 1 0
BITMAP
F8
F8
18
18
30
30
60
60
60
ENDCHAR
STARTCHAR six
ENCODING 54
SWIDTH 560 0
DWIDTH 7 0
BBX 6 9 0 0
BITMAP
38
70
60
F8
FC
CC
CC
FC
78
ENDCHAR
STARTCHAR slash
ENCODING 47
SWIDTH 460 0
DWIDTH 7 0
BBX 6 11 0 -2
BITMAP
04
0C
08
18
10
30
20
60
40
C0
80
ENDCHAR
STARTCHAR space
ENCODING 32
SWIDTH 280 0
DWIDTH 3 0
BBX 1 1 0 0
BITMAP
00
ENDCHAR
STARTCHAR space
ENCODING 160
SWIDTH 280 0
DWIDTH 3 0
BBX 1 1 0 0
BITMAP
00
ENDCHAR
STARTCHAR sterling
ENCODING 163
SWIDTH 560 0
DWIDTH 7 0
BBX 6 9 0 0
BITMAP
78
DC
C0
60
F8
60
64
EC
F8
ENDCHAR
STARTCHAR t
ENCODING 116
SWIDTH 300 0
DWIDTH 5 0
BBX 4 9 0 0
BITMAP
60
60
F0
60
60
60
60
60
60
ENDCHAR
STARTCHAR thorn
ENCODING 254
SWIDTH 660 0
DWIDTH 8 0
BBX 7 12 0 -3
BITMAP
C0
C0
DC
FE
C6
C6
C6
FE
DC
C0
C0
C0
ENDCHAR
STARTCHAR three
ENCODING 51
SWIDTH 560 0
DWIDTH 7 0
BBX 6 9 0 0
BITMAP
78
FC
CC
38
3C
0C
CC
FC
78
ENDCHAR
STARTCHAR threequarters
ENCODING 190
SWIDTH 840 0
DWIDTH 10 0
BBX 9 9 0 0
BITMAP
E200
3600
6400
3C00
E900
1B00
1500
3F80
2300
ENDCHAR
STARTCHAR threesuperior
ENCODING 179
SWIDTH 336 0
DWIDTH 4 0
BBX 4 5 0 4
BITMAP
E0
30
60
30
E0
ENDCHAR
STARTCHAR tilde
ENCODING -1
SWIDTH 480 0
DWIDTH 6 0
BBX 5 2 0 8
BITMAP
68
B0
ENDCHAR
STARTCHAR trademark
ENCODING -1
SWIDTH 1000 0
DWIDTH 11 0
BBX 9 5 1 4
BITMAP
ED80
4D80
4A80
4A80
4A80
ENDCHAR
STARTCHAR two
ENCODING 50
SWIDTH 560 0
DWIDTH 7 0
BBX 6 9 0 0
BITMAP
78
FC
CC
0C
0C
18
30
FC
FC
ENDCHAR
STARTCHAR twosuperior
ENCODING 178
SWIDTH 336 0
DWIDTH 4 0
BBX 4 5 0 4
BITMAP
E0
B0
60
C0
F0
ENDCHAR
STARTCHAR u
ENCODING 117
SWIDTH 600 0
DWIDTH 7 0
BBX 6 7 0 0
BITMAP
CC
CC
CC
CC
CC
FC
6C
ENDCHAR
STARTCHAR uacute
ENCODING 250
SWIDTH 600 0
DWIDTH 7 0
BBX 6 10 0 0
BITMAP
18
30
00
CC
CC
CC
CC
CC
FC
6C
ENDCHAR
STARTCHAR ucircumflex
ENCODING 251
SWIDTH 600 0
DWIDTH 7 0
BBX 6 10 0 0
BITMAP
30
68
00
CC
CC
CC
CC
CC
FC
6C
ENDCHAR
STARTCHAR udieresis
ENCODING 252
SWIDTH 600 0
DWIDTH 7 0
BBX 6 10 0 0
BITMAP
D8
D8
00
CC
CC
CC
CC
CC
FC
6C
ENDCHAR
STARTCHAR ugrave
ENCODING 249
SWIDTH 600 0
DWIDTH 7 0
BBX 6 10 0 0
BITMAP
60
30
00
CC
CC
CC
CC
CC
FC
6C
ENDCHAR
STARTCHAR underscore
ENCODING 95
SWIDTH 500 0
DWIDTH 6 0
BBX 6 1 0 -2
BITMAP
FC
ENDCHAR
STARTCHAR v
ENCODING 118
SWIDTH 560 0
DWIDTH 8 0
BBX 7 7 0 0
BITMAP
C6
C6
6C
6C
6C
38
38
ENDCHAR
STARTCHAR w
ENCODING 119
SWIDTH 800 0
DWIDTH 8 0
BBX 7 7 0 0
BITMAP
D6
D6
D6
54
7C
6C
6C
ENDCHAR
STARTCHAR x
ENCODING 120
SWIDTH 560 0
DWIDTH 6 0
BBX 5 7 0 0
BITMAP
D8
D8
70
20
70
D8
D8
ENDCHAR
STARTCHAR y
ENCODING 121
SWIDTH 580 0
DWIDTH 7 0
BBX 6 10 0 -3
BITMAP
CC
CC
CC
68
78
30
70
60
E0
C0
ENDCHAR
STARTCHAR yacute
ENCODING 253
SWIDTH 580 0
DWIDTH 7 0
BBX 6 13 0 -3
BITMAP
18
30
00
CC
CC
CC
68
78
30
70
60
E0
C0
ENDCHAR
STARTCHAR ydieresis
ENCODING 255
SWIDTH 580 0
DWIDTH 7 0
BBX 6 13 0 -3
BITMAP
6C
6C
00
CC
CC
CC
78
78
30
30
60
E0
C0
ENDCHAR
STARTCHAR yen
ENCODING 165
SWIDTH 560 0
DWIDTH 8 0
BBX 6 9 1 0
BITMAP
CC
CC
78
FC
30
FC
30
30
30
ENDCHAR
STARTCHAR z
ENCODING 122
SWIDTH 460 0
DWIDTH 6 0
BBX 5 7 0 0
BITMAP
F8
F8
30
60
C0
F8
F8
ENDCHAR
STARTCHAR zcaron
ENCODING -1
SWIDTH 460 0
DWIDTH 6 0
BBX 5 10 0 0
BITMAP
D0
60
00
F8
F8
30
60
C0
F8
F8
ENDCHAR
STARTCHAR zero
ENCODING 48
SWIDTH 560 0
DWIDTH 7 0
BBX 6 9 0 0
BITMAP
78
FC
CC
CC
CC
CC
CC
FC
78
ENDCHAR
ENDFONT
